# xmcd
#
# Track frame offsets: 
#        150
#        19932
#        39307
#        50402
#        68987
#        83745
#        96010
#        112220
#        128012
#        142277
#        153267
#        170892
#        185005
#        199595
#        215625
#        227780
#        242122
#        258747
#
# Disc length: 3619 seconds
#
# Revision: 0
# Processed by: cddbd v1.5.2PL0 Copyright (c) Steve Scherf et al.
# Submitted via: ExactAudioCopy v0.95b4
#
DISCID=0f0e2112
DTITLE=Various Artist - Gala der Weltstars - O Sole Mio
DYEAR=2000
DGENRE=Classical
TTITLE0=Mario Lanza - 'O sole mio
TTITLE1=Andrea Bocelli and Helen Schneider - La Luna
TTITLE2=Luciano Pavarotti - La donna é mobile
TTITLE3=Enrico Caruso - Che gelida manina
TTITLE4=Franzisco Araiza - La Danza
TTITLE5=Fritz Wunderlich - Freunde, das Leben ist lebenswert
TTITLE6=Rudolf Schock - Dein ist mein ganzes Herz
TTITLE7=Hermann Prey - Da ich nun verlassen soll
TTITLE8=Fritz Wunderlich - Nur wer die Sehnsucht kennt
TTITLE9=Mario Lanza - Love Is the Sweetest Thing
TTITLE10=Rudolf Schock - Dies Bildnis ist bezaubernd schön
TTITLE11=Hermann Prey - Ich hab' mein Herz in Heidelberg verloren
TTITLE12=Francisco Ariaza - Maria
TTITLE13=Placido Domingo - Musette! O gioia della mia dimora - Test ado
TTITLE13=rata, non piú tornerai
TTITLE14=Sergio Franchi - Funiculí, funiculá
TTITLE15=Fritz Wunderlich - Granada
TTITLE16=Jan Peerce - La fleur que tu m'avais jetée
TTITLE17=René Kollo - Ava Maria
EXTD=
EXTT0=
EXTT1=
EXTT2=
EXTT3=
EXTT4=
EXTT5=
EXTT6=
EXTT7=
EXTT8=
EXTT9=
EXTT10=
EXTT11=
EXTT12=
EXTT13=
EXTT14=
EXTT15=
EXTT16=
EXTT17=
PLAYORDER=
